<svg width="16" height="16" version="1.1" viewBox="0 0 16 16" xmlns="http://www.w3.org/2000/svg">
 <path d="m1.0215 5.0215v4.1113c0 4.6125-.01341 4.2928.20312 4.7422.27094.56232.77643.95543 1.3926 1.082.14351.02949 1.1446.03485 5.4609.03125l5.2852-.0039.18945-.06445c.69773-.2341 1.1521-.70256 1.3691-1.4102l.0625-.20117.0078-4.1445.007825-4.1426h-6.9902zm7.1133.67969c.19445.00955.39044.037679.55469.080078.68655.17722 1.3537.67979 1.8223 1.375l.10742.1582-.07227.10547c-.10339.14878-.36464.41541-.52734.54102-.53628.41399-1.1686.63512-1.9023.66211-.11529.00426-.2538.00367-.30664 0-.78775-.054628-1.4907-.34804-2.0117-.8418-.14741-.1397-.38086-.42586-.38086-.4668 0-.029481.20134-.31513.33203-.4707.5206-.61969 1.1423-.99669 1.8418-1.1172.15507-.026712.34852-.034943.54297-.025391zm4.1367 1.168c.20172.034125.36239.24976.28125.46875-.02595.070031-.13128.18489-.68945.74609l-.66016.66406.03906.20312c.02196.11127.04935.28467.06055.38477.01121.10009.02423.21503.0293.25586l.0098.074219h1.7031l.07813.041016c.21218.11202.25235.39943.08008.56641-.11081.1074-.12318.10742-1.0352.10742h-.82617l-.0098.07422c-.005.04082-.01382.12204-.01953.17969-.03292.33203-.12904.77708-.24414 1.1211l-.0625.18555.76562.77148c.79284.79632.80899.81242.80859.94531-.000199.07054-.04006.16763-.0918.22656-.10709.12197-.26868.16311-.41211.10352-.04399-.01825-.28102-.2427-.73242-.69336-.36716-.36656-.67044-.66252-.67383-.6582-.0034.0043-.04046.06165-.08203.12891-.26131.42274-.68131.86359-1.0605 1.1113-.19264.12584-.45419.25335-.6543.32031-.16779.05614-.40211.11523-.46094.11523-.02165 0-.025391-.33656-.025391-2.4707v-2.4707l.048828-.00781c.02642-.00499.094702-.015313.15234-.021484.18512-.019817.51845-.096399.75391-.17383.78774-.25904 1.4646-.76382 1.8789-1.3984.07516-.11512.19201-.24702.4375-.49414.18439-.18561.36792-.35313.40625-.37305.06883-.035762.13979-.044578.20703-.033203zm-8.3789.00391c.07715.018979.11569.051672.43945.37109.23574.23258.38319.3936.43555.47461.43416.67176 1.1021 1.1786 1.9082 1.4473.23909.079692.56965.15543.75977.17578.05764.0062.12592.016519.15234.021484l.048828.00781v4.9414l-.039063-.002c-.021619-.000335-.12674-.023424-.23242-.050734-.74955-.19368-1.4054-.69257-1.8926-1.4414-.06251-.09607-.11563-.17726-.11914-.18164-.0035-.0044-.30673.29149-.67383.6582-.45357.45309-.68829.67513-.73242.69336-.30414.1256-.6006-.19251-.45508-.48828.01418-.02882.36224-.39057.77539-.80469l.75195-.75391-.070312-.2168c-.12122-.37473-.21208-.80909-.23828-1.1328-.0059-.07206-.015081-.1483-.019531-.16992l-.00781-.04102h-.82227c-.60058 0-.84402-.0058-.89648-.02148-.14077-.04207-.25363-.19937-.25391-.35352-.000156-.08534.07914-.22509.16016-.28125l.072266-.050781.86523-.00391c.65848-.003653.86858-.011098.87891-.02734.0075-.011741.013472-.056374.013672-.099609.000445-.096757.061626-.52238.097656-.67773l.027344-.11328-.6543-.65625c-.3597-.36112-.66811-.68512-.68555-.71875-.04018-.077467-.042466-.23407-.0039062-.30664.08142-.1532.25416-.23563.41016-.19727zm-.89258-5.8618c-1.1046 0-2 .8954-2 2v1h14v-1c0-1.1046-.89543-2-2-2zm9 1h1v1h-1z" fill="#a5efac"/>
</svg>
