<?xml version="1.0" encoding="UTF-8" standalone="no"?>
<svg
   xmlns:dc="http://purl.org/dc/elements/1.1/"
   xmlns:cc="http://creativecommons.org/ns#"
   xmlns:rdf="http://www.w3.org/1999/02/22-rdf-syntax-ns#"
   xmlns:svg="http://www.w3.org/2000/svg"
   xmlns="http://www.w3.org/2000/svg"
   height="16"
   viewBox="0 0 16 16"
   width="16"
   version="1.1"
   id="svg41">
  <metadata
     id="metadata47">
    <rdf:RDF>
      <cc:Work
         rdf:about="">
        <dc:format>image/svg+xml</dc:format>
        <dc:type
           rdf:resource="http://purl.org/dc/dcmitype/StillImage" />
        <dc:title></dc:title>
        <cc:license
           rdf:resource="" />
      </cc:Work>
    </rdf:RDF>
  </metadata>
  <defs
     id="defs45">
    <clipPath
       clipPathUnits="userSpaceOnUse"
       id="clipPath48">
      <g
         id="use50">
        <g
           id="g82"
           style="display:inline">
          <path
             id="path80"
             style="display:inline;fill:#a5efac;fill-opacity:1"
             d="m 3,1.0112264 c -1.1046,0 -2,0.8954 -2,2 v 1 h 14 v -1 c 0,-1.1046 -0.89543,-2 -2,-2 z m 9,1 h 1 v 1 h -1 z" />
        </g>
        <g
           id="g86"
           style="display:inline">
          <path
             id="path84"
             style="display:inline;fill:#a5efac;fill-opacity:1"
             d="m 1.0214844,5.0214844 v 4.1113281 c 0,4.6124505 -0.01341,4.2927915 0.203125,4.7421875 0.270945,0.562324 0.7764261,0.955427 1.3925781,1.082031 0.14351,0.02949 1.1446095,0.03485 5.4609375,0.03125 l 5.285156,-0.0039 0.189453,-0.06445 c 0.697731,-0.234105 1.152118,-0.702559 1.369141,-1.410156 l 0.0625,-0.201172 0.0078,-4.1445315 L 15,5.0214844 H 8.0097656 Z m 7.1132812,0.6796875 c 0.1944488,0.00955 0.390439,0.037679 0.5546875,0.080078 0.686548,0.1772232 1.3536949,0.6797881 1.8222659,1.375 l 0.107422,0.1582031 -0.07227,0.1054688 C 10.443485,7.568705 10.182227,7.8353366 10.019527,7.9609374 9.4832496,8.3749316 8.8509575,8.5960594 8.1171835,8.6230468 c -0.115287,0.00426 -0.2537996,0.00367 -0.3066406,0 C 7.0227869,8.5684192 6.3198181,8.2750048 5.7988281,7.78125 5.6514181,7.6415458 5.4179688,7.3553854 5.4179688,7.3144531 5.4179688,7.2849721 5.619306,6.9993203 5.75,6.84375 6.270604,6.2240611 6.8923109,5.8470562 7.5917969,5.7265625 c 0.1550665,-0.026712 0.34852,-0.034943 0.5429687,-0.025391 z m 4.1367184,1.1679687 c 0.201719,0.034125 0.36239,0.2497637 0.28125,0.46875 -0.02595,0.070031 -0.131277,0.1848926 -0.689453,0.7460938 l -0.660156,0.6640625 0.03906,0.203125 c 0.02196,0.1112674 0.04935,0.2846735 0.06055,0.3847656 0.01121,0.100092 0.02423,0.2150292 0.0293,0.2558594 l 0.0098,0.074219 h 0.851562 0.851563 l 0.07813,0.041016 c 0.21218,0.1120179 0.252352,0.3994321 0.08008,0.5664071 -0.110806,0.107402 -0.123185,0.107421 -1.035156,0.107421 h -0.826172 l -0.0098,0.07422 c -0.005,0.04082 -0.01382,0.122045 -0.01953,0.179688 -0.03292,0.332031 -0.129043,0.777076 -0.244141,1.121093 l -0.0625,0.185547 0.765625,0.771485 c 0.792836,0.796324 0.808988,0.812423 0.808594,0.945312 -1.99e-4,0.07054 -0.04006,0.167634 -0.0918,0.226563 -0.107092,0.121974 -0.268675,0.163114 -0.412109,0.103515 -0.04399,-0.01825 -0.281024,-0.242696 -0.732422,-0.693359 -0.36716,-0.366562 -0.670436,-0.662523 -0.673828,-0.658203 -0.0034,0.0043 -0.04046,0.06165 -0.08203,0.128906 -0.261314,0.422736 -0.6813092,0.863592 -1.0605472,1.111328 -0.1926388,0.125841 -0.4541949,0.253353 -0.6542969,0.320313 -0.167793,0.05614 -0.4021145,0.115234 -0.4609375,0.115234 -0.02165,0 -0.025391,-0.336564 -0.025391,-2.470703 V 9.3710938 l 0.048828,-0.00781 c 0.02642,-0.00499 0.094702,-0.015313 0.1523437,-0.021484 0.185119,-0.019817 0.5184483,-0.096399 0.7539063,-0.1738281 0.7877416,-0.2590445 1.4645906,-0.7638216 1.8789056,-1.3984376 0.07516,-0.1151198 0.192008,-0.2470226 0.4375,-0.4941406 0.184386,-0.1856077 0.367916,-0.3531279 0.40625,-0.3730468 0.06883,-0.035762 0.139792,-0.044578 0.207031,-0.033203 z m -8.3789059,0.00391 c 0.07715,0.018979 0.1156891,0.051672 0.4394531,0.3710937 0.2357421,0.2325767 0.3831909,0.3936 0.4355469,0.4746094 0.434163,0.6717571 1.1021482,1.1785946 1.9082031,1.4472656 0.2390921,0.079692 0.5696497,0.1554298 0.7597657,0.1757813 0.05764,0.0062 0.1259247,0.016519 0.1523437,0.021484 l 0.048828,0.00781 V 11.841797 14.3125 l -0.039063,-0.002 C 7.5760362,14.310118 7.4709144,14.287076 7.3652344,14.259766 6.6156844,14.066088 5.9598533,13.5672 5.4726562,12.818359 5.4101463,12.722289 5.3570256,12.6411 5.3535156,12.636719 5.3500156,12.632319 5.0467875,12.92821 4.6796875,13.294922 4.2261195,13.748013 3.9913976,13.970055 3.9472656,13.988281 3.6431306,14.113885 3.3466625,13.795772 3.4921875,13.5 3.5063675,13.47118 3.8544321,13.109427 4.2675781,12.695312 L 5.0195312,11.941406 4.9492188,11.724609 C 4.8279987,11.349875 4.7371365,10.915523 4.7109375,10.591797 c -0.0059,-0.07206 -0.015081,-0.148305 -0.019531,-0.169922 l -0.00781,-0.04102 H 3.8613281 c -0.600576,0 -0.8440173,-0.0058 -0.8964843,-0.02148 -0.14077,-0.04207 -0.2536253,-0.199369 -0.2539063,-0.353516 -1.56e-4,-0.08534 0.07914,-0.2250931 0.1601563,-0.2812496 l 0.072266,-0.050781 0.8652344,-0.00391 C 4.4670727,9.6662619 4.677179,9.6588201 4.6875,9.6425781 4.695,9.6308371 4.700972,9.5862041 4.701172,9.5429691 4.701617,9.4462121 4.762798,9.0205917 4.798828,8.8652347 L 4.8261719,8.7519531 4.171875,8.0957031 C 3.812172,7.7345788 3.5037671,7.4105791 3.4863281,7.3769531 3.4461481,7.2994861 3.4438619,7.1428808 3.4824219,7.0703125 3.5638419,6.9171085 3.7365791,6.8346816 3.8925781,6.8730469 Z" />
        </g>
      </g>
    </clipPath>
  </defs>
  <path
     id="path253"
     style="display:inline;fill:#a5efac;fill-opacity:1"
     d="m 1.0214844,5.0214844 v 4.1113281 c 0,4.6124505 -0.01341,4.2927915 0.203125,4.7421875 0.270945,0.562324 0.7764261,0.955427 1.3925781,1.082031 0.14351,0.02949 1.1446095,0.03485 5.4609375,0.03125 l 5.285156,-0.0039 0.189453,-0.06445 c 0.697731,-0.234105 1.152118,-0.702559 1.369141,-1.410156 l 0.0625,-0.201172 0.0078,-4.1445315 L 15,5.0214844 H 8.0097656 Z m 7.1132812,0.6796875 c 0.1944488,0.00955 0.390439,0.037679 0.5546875,0.080078 0.686548,0.1772232 1.3536949,0.6797881 1.8222659,1.375 l 0.107422,0.1582031 -0.07227,0.1054688 C 10.443485,7.568705 10.182227,7.8353366 10.019527,7.9609374 9.4832499,8.3749316 8.8509575,8.5960594 8.1171835,8.6230468 c -0.115287,0.00426 -0.2537996,0.00367 -0.3066406,0 C 7.0227909,8.5684193 6.3198181,8.2750048 5.7988281,7.78125 5.6514181,7.6415458 5.4179688,7.3553854 5.4179688,7.3144531 5.4179688,7.2849721 5.619306,6.9993203 5.75,6.84375 6.270604,6.2240611 6.8923109,5.8470562 7.5917969,5.7265625 c 0.1550665,-0.026712 0.34852,-0.034943 0.5429687,-0.025391 z m 4.1367184,1.1679687 c 0.201719,0.034125 0.36239,0.2497637 0.28125,0.46875 -0.02595,0.070031 -0.131277,0.1848926 -0.689453,0.7460938 l -0.660156,0.6640625 0.03906,0.203125 c 0.02196,0.1112674 0.04935,0.2846735 0.06055,0.3847656 0.01121,0.100092 0.02423,0.2150292 0.0293,0.2558594 l 0.0098,0.074219 h 0.851562 0.851563 l 0.07813,0.041016 c 0.21218,0.1120179 0.25235,0.3994321 0.08008,0.5664071 -0.110806,0.107402 -0.123185,0.107421 -1.035156,0.107421 h -0.826172 l -0.0098,0.07422 c -0.005,0.04082 -0.01382,0.122045 -0.01953,0.179688 -0.03292,0.332031 -0.129043,0.777076 -0.244141,1.121093 l -0.0625,0.185547 0.765625,0.771485 c 0.792836,0.796324 0.808988,0.812423 0.808594,0.945312 -1.99e-4,0.07054 -0.04006,0.167634 -0.0918,0.226563 -0.107092,0.121974 -0.268675,0.163114 -0.412109,0.103515 -0.04399,-0.01825 -0.281024,-0.242696 -0.732422,-0.693359 -0.36716,-0.366562 -0.670436,-0.662523 -0.673828,-0.658203 -0.0034,0.0043 -0.04046,0.06165 -0.08203,0.128906 -0.261314,0.422736 -0.6813092,0.863592 -1.0605472,1.111328 -0.1926388,0.125841 -0.4541949,0.253353 -0.6542969,0.320313 -0.167793,0.05614 -0.4021145,0.115234 -0.4609375,0.115234 -0.02165,0 -0.025391,-0.336564 -0.025391,-2.470703 V 9.3710938 l 0.048828,-0.00781 c 0.02642,-0.00499 0.094702,-0.015313 0.1523437,-0.021484 0.185119,-0.019817 0.5184483,-0.096399 0.7539063,-0.1738281 0.7877406,-0.2590445 1.4645906,-0.7638215 1.8789056,-1.3984376 0.07516,-0.1151197 0.192008,-0.2470226 0.4375,-0.4941406 0.184386,-0.1856077 0.367916,-0.353128 0.40625,-0.3730468 0.06883,-0.035762 0.139792,-0.044578 0.207031,-0.033203 z m -8.3789059,0.00391 c 0.07715,0.018979 0.1156892,0.051672 0.4394531,0.3710937 0.2357422,0.2325767 0.3831909,0.3936 0.4355469,0.4746094 0.434163,0.6717571 1.1021483,1.1785946 1.9082031,1.4472656 0.2390921,0.079692 0.5696497,0.1554298 0.7597657,0.1757813 0.05764,0.0062 0.1259247,0.016519 0.1523437,0.021484 l 0.048828,0.00781 V 11.841797 14.3125 l -0.039063,-0.002 C 7.5760368,14.310165 7.4709144,14.287076 7.3652344,14.259766 6.6156844,14.066088 5.9598534,13.5672 5.4726562,12.818359 5.4101463,12.722289 5.3570256,12.6411 5.3535156,12.636719 5.3500156,12.632319 5.0467875,12.92821 4.6796875,13.294922 4.2261195,13.748013 3.9913976,13.970055 3.9472656,13.988281 3.6431306,14.113885 3.3466625,13.795772 3.4921875,13.5 3.5063675,13.47118 3.8544321,13.109428 4.2675781,12.695312 L 5.0195312,11.941406 4.9492188,11.724609 C 4.8279987,11.349875 4.7371365,10.915523 4.7109375,10.591797 c -0.0059,-0.07206 -0.015081,-0.148305 -0.019531,-0.169922 l -0.00781,-0.04102 H 3.8613281 c -0.600576,0 -0.8440173,-0.0058 -0.8964843,-0.02148 -0.14077,-0.04207 -0.2536253,-0.199369 -0.2539063,-0.353516 -1.56e-4,-0.08534 0.07914,-0.2250931 0.1601563,-0.2812496 l 0.072266,-0.050781 0.8652344,-0.00391 C 4.4670723,9.6662654 4.677179,9.6588201 4.6875,9.6425781 4.695,9.6308371 4.700972,9.5862041 4.701172,9.5429691 4.701617,9.4462121 4.762798,9.0205917 4.798828,8.8652347 L 4.8261719,8.7519531 4.171875,8.0957031 C 3.812172,7.7345788 3.5037671,7.4105791 3.4863281,7.3769531 3.4461481,7.2994861 3.4438619,7.1428808 3.4824219,7.0703125 3.5638419,6.9171085 3.7365791,6.8346816 3.8925781,6.8730469 Z M 3,1.0112264 c -1.1046,0 -2,0.8954 -2,2 v 1 h 14 v -1 c 0,-1.1046 -0.89543,-2 -2,-2 z m 9,1 h 1 v 1 h -1 z" />
</svg>
