<svg width="16" height="16" version="1.1" viewBox="0 0 16 16" xmlns="http://www.w3.org/2000/svg">
 <path d="m3 1c-1.1046 0-2 0.8954-2 2v10c0 1.1046 0.89543 2 2 2h10c1.1046 0 2-0.8954 2-2v-10c0-1.1046-0.89543-2-2-2h-10zm5 2.5c1.2216 1.025e-4 2.3597 0.77193 3.0273 2.0508h-6.0547c0.6676-1.2789 1.8057-2.0507 3.0273-2.0508zm-5.1406 1.9453 1.748 1.0078h2.9414v6.0469c-0.86485-0.13636-1.6686-0.6559-2.2539-1.4805l-2.4355 1.4062-0.45117-0.7832 2.4395-1.4102c-0.12111-0.26862-0.21997-0.55194-0.29492-0.8457h-2.748v-0.9043h2.5977c-0.012819-0.15369-0.019387-0.30837-0.019531-0.46289 5.5e-5 -0.21031 0.013649-0.4187 0.037109-0.62695l-2.0117-1.1621 0.45117-0.78516zm10.281 0 0.45117 0.78516-2.0117 1.1621c0.02345 0.20825 0.037052 0.41665 0.03711 0.62695-1.41e-4 0.15452-0.006742 0.3092-0.019532 0.46289h2.5977v0.9043h-2.748c-0.074303 0.29428-0.17238 0.57838-0.29297 0.84766l2.4375 1.4082-0.45117 0.7832-2.4355-1.4062c-0.58527 0.82457-1.3891 1.3441-2.2539 1.4805v-6.0469h2.9414l1.748-1.0078z" fill="#a5efac"/>
</svg>
