<svg width="16" height="16"><path d="M3 1a2 2 0 00-2 2v10a2 2 0 002 2h10a2 2 0 002-2V3a2 2 0 00-2-2H3m4.313 4.78c.39 0 .744.085 1.062.255.318.17.57.417.758.748.187.33.281.736.281 1.217s-.094.888-.281 1.219a1.88 1.88 0 01-.758.748 2.227 2.227 0 01-1.063.254c-.394 0-.75-.086-1.068-.256a1.899 1.899 0 01-.756-.75c-.186-.33-.28-.736-.28-1.215 0-.481.094-.887.28-1.217.187-.33.44-.579.756-.748.318-.17.674-.256 1.068-.256m4.736 0c.34 0 .65.063.926.19.275.127.498.302.67.526.173.222.275.48.304.77h-1.185a.548.548 0 00-.233-.342.795.795 0 00-.457-.123c-.295 0-.523.105-.685.314-.162.21-.242.503-.242.877 0 .38.075.676.23.889s.385.318.69.318c.263 0 .46-.055.593-.166a.582.582 0 00.21-.451h-.786v-.836H14v.6c0 .394-.084.731-.252 1.011a1.664 1.664 0 01-.687.643c-.292.148-.625.22-1.002.22-.421 0-.792-.088-1.11-.267a1.884 1.884 0 01-.746-.764c-.177-.33-.266-.725-.266-1.181 0-.476.096-.879.286-1.211.19-.332.446-.585.765-.758s.672-.26 1.06-.26m-10.05.058h1.175v3.379h1.748v.945H2V5.838m5.313.963c-.291 0-.514.103-.668.308-.152.206-.228.503-.228.891s.076.685.228.89c.154.206.377.31.668.31.292 0 .512-.104.664-.31.154-.205.23-.502.23-.89s-.076-.685-.23-.89c-.152-.206-.372-.31-.664-.31" fill="#a5efac"/></svg>